<svg width="44" height="49" viewBox="0 0 44 49" fill="none" xmlns="http://www.w3.org/2000/svg">
<path d="M1.48036 23.3502C-0.615188 18.6842 2.63614 12.6786 8.7424 9.93615L30.8551 0.00500059L31.3294 1.06106C33.425 5.72701 30.1737 11.7327 24.0674 14.4751L1.95465 24.4062L1.48036 23.3502Z" fill="#FA9F42"/>
<path d="M1.48036 23.3502C-0.615188 18.6842 2.63614 12.6786 8.7424 9.93615L30.8551 0.00500059L31.3294 1.06106C33.425 5.72701 30.1737 11.7327 24.0674 14.4751L1.95465 24.4062L1.48036 23.3502Z" fill="#FA9F42"/>
<path d="M1.48036 23.3502C-0.615188 18.6842 2.63614 12.6786 8.7424 9.93615L30.8551 0.00500059L31.3294 1.06106C33.425 5.72701 30.1737 11.7327 24.0674 14.4751L1.95465 24.4062L1.48036 23.3502Z" fill="#FA9F42"/>
<path d="M1.48036 23.3502C-0.615188 18.6842 2.63614 12.6786 8.7424 9.93615L30.8551 0.00500059L31.3294 1.06106C33.425 5.72701 30.1737 11.7327 24.0674 14.4751L1.95465 24.4062L1.48036 23.3502Z" fill="#FA9F42"/>
<path d="M7.00863 35.6446C4.91309 30.9786 8.16441 24.9729 14.2707 22.2305L36.3834 12.2994L36.8577 13.3554C38.9532 18.0214 35.7019 24.0271 29.5957 26.7695L7.48292 36.7006L7.00863 35.6446Z" fill="#FA9F42"/>
<path d="M7.00863 35.6446C4.91309 30.9786 8.16441 24.9729 14.2707 22.2305L36.3834 12.2994L36.8577 13.3554C38.9532 18.0214 35.7019 24.0271 29.5957 26.7695L7.48292 36.7006L7.00863 35.6446Z" fill="#FA9F42"/>
<path d="M7.00863 35.6446C4.91309 30.9786 8.16441 24.9729 14.2707 22.2305L36.3834 12.2994L36.8577 13.3554C38.9532 18.0214 35.7019 24.0271 29.5957 26.7695L7.48292 36.7006L7.00863 35.6446Z" fill="#FA9F42"/>
<path d="M7.00863 35.6446C4.91309 30.9786 8.16441 24.9729 14.2707 22.2305L36.3834 12.2994L36.8577 13.3554C38.9532 18.0214 35.7019 24.0271 29.5957 26.7695L7.48292 36.7006L7.00863 35.6446Z" fill="#FA9F42"/>
<path d="M12.5369 47.9389C10.4414 43.273 13.6927 37.2673 19.7989 34.5249L41.9117 24.5938L42.386 25.6498C44.4815 30.3158 41.2302 36.3214 35.124 39.0638L13.0112 48.995L12.5369 47.9389Z" fill="#FA9F42"/>
<path d="M12.5369 47.9389C10.4414 43.273 13.6927 37.2673 19.7989 34.5249L41.9117 24.5938L42.386 25.6498C44.4815 30.3158 41.2302 36.3214 35.124 39.0638L13.0112 48.995L12.5369 47.9389Z" fill="#FA9F42"/>
<path d="M12.5369 47.9389C10.4414 43.273 13.6927 37.2673 19.7989 34.5249L41.9117 24.5938L42.386 25.6498C44.4815 30.3158 41.2302 36.3214 35.124 39.0638L13.0112 48.995L12.5369 47.9389Z" fill="#FA9F42"/>
<path d="M12.5369 47.9389C10.4414 43.273 13.6927 37.2673 19.7989 34.5249L41.9117 24.5938L42.386 25.6498C44.4815 30.3158 41.2302 36.3214 35.124 39.0638L13.0112 48.995L12.5369 47.9389Z" fill="#FA9F42"/>
</svg>
